;PTH Drill file created by EasyEDA 
M48
INCH,LZ
;Holesize 1 = 0.012 INCH
T01C0.012
;Holesize 2 = 0.035 INCH
T02C0.035
;Holesize 3 = 0.051 INCH
T03C0.051
%
G05
G90
T01
X006900Y011650
X006950Y009150
X010150Y011650
X007800Y007800
X008150Y007800
X008500Y007800
X008850Y007800
X007800Y008150
X008150Y008150
X008500Y008150
X008850Y008150
X007800Y007450
X008150Y007450
X008500Y007450
X008850Y007450
X007800Y008500
X008150Y008500
X008500Y008500
X008850Y008500
X007800Y010300
X008150Y010300
X008500Y010300
X008850Y010300
X007800Y010650
X008150Y010650
X008500Y010650
X008850Y010650
X007800Y009950
X008150Y009950
X008500Y009950
X008850Y009950
X007800Y011000
X008150Y011000
X008500Y011000
X008850Y011000
X004600Y010300
X004950Y010300
X005300Y010300
X005650Y010300
X004600Y010650
X004950Y010650
X005300Y010650
X005650Y010650
X004600Y009950
X004950Y009950
X005300Y009950
X005650Y009950
X004600Y011000
X004950Y011000
X005300Y011000
X005650Y011000
X004600Y007800
X004950Y007800
X005300Y007800
X005650Y007800
X004600Y008150
X004950Y008150
X005300Y008150
X005650Y008150
X004600Y007450
X004950Y007450
X005300Y007450
X005650Y007450
X004600Y008500
X004950Y008500
X005300Y008500
X005650Y008500
X009900Y003200
X011200Y004950
X010300Y002400
X011850Y004950
X009100Y005900
X009100Y005250
X005100Y003200
X005500Y002400
X007050Y004950
X006400Y004950
X007050Y006500
X006750Y006750
X006200Y009250
X004300Y005050
X009500Y002400
X004700Y002400
X005100Y002400
X009900Y002400
X012200Y003850
X010450Y001250
X004100Y003400
X008600Y004305
X008250Y004305
X007900Y004305
X007550Y004305
X007550Y003955
X007900Y003955
X008250Y003955
X008600Y003955
X007950Y002805
X007950Y003155
X008300Y003155
X008300Y002805
X010400Y006855
X010700Y006855
X011000Y006855
X011300Y006855
X011600Y006855
X010100Y006355
X010100Y006655
X009700Y006755
X008200Y006755
X008200Y006455
X008500Y006755
X008500Y006455
X008800Y006755
X008800Y006455
X009100Y006755
X009100Y006455
X010650Y011855
X010650Y011555
X010950Y011855
X010950Y011555
X011250Y011855
X011250Y011555
X011550Y011855
X011550Y011555
X011850Y011855
X011850Y011555
X012150Y011855
X012150Y011555
X000750Y004755
X000750Y004405
X000750Y004055
X000750Y003705
X001100Y003705
X001100Y004055
X001100Y004405
X001100Y004755
X000750Y006155
X000750Y005805
X000750Y005455
X000750Y005105
X001100Y005105
X001100Y005455
X001100Y005805
X001100Y006155
X003400Y011905
X003700Y011905
X004000Y011905
X004300Y011905
X004600Y011905
X004900Y011905
X001600Y011905
X001900Y011905
X002200Y011905
X002500Y011905
X002800Y011905
X003100Y011905
X013600Y002705
X013600Y003005
X013600Y003305
X013600Y003605
X013600Y003905
X013600Y004205
X013600Y002105
X013600Y002405
X002600Y000355
X002900Y000355
X002600Y000655
X002900Y000655
X002600Y000955
X002900Y000955
X002600Y001255
X002900Y001255
X002600Y001555
X002900Y001555
X002600Y001855
X002900Y001855
X001100Y007505
X001400Y007505
X001700Y007505
X002000Y007505
X002300Y007505
X011650Y009355
X011650Y009055
X011950Y009355
X011950Y009055
X012250Y009355
X012250Y009055
X012550Y009355
X012550Y009055
X012850Y009355
X012850Y009055
T02
X008850Y000750
X007850Y000750
X006850Y000750
X005850Y000750
X004850Y000750
T03
X001730Y010250
X001730Y008278
X012268Y008250
X012268Y010222
M30
