G04 ---------------------------- Layer name :TOP SILK LAYER*
G04 EasyEDA v5.6.10, Sun, 08 Jul 2018 18:09:17 GMT*
G04 afe9f61c7a5b4e3abdc74997a70e8aea*
G04 Gerber Generator version 0.2*
G04 Scale: 100 percent, Rotated: No, Reflected: No *
G04 Dimensions in inches *
G04 leading zeros omitted , absolute positions ,2 integer and 4 decimal *
%FSLAX24Y24*%
%MOIN*%
G90*
G70D02*

%ADD10C,0.010000*%
%ADD27C,0.007874*%
%ADD28C,0.007900*%
%ADD29C,0.008000*%
%ADD30C,0.007992*%
%ADD31C,0.015700*%
%ADD32C,0.006000*%
%ADD33C,0.005000*%

%LPD*%
G54D10*
G01X10521Y2200D02*
G01X9300Y2200D01*
G01X9300Y3420D02*
G01X9300Y2200D01*
G01X10521Y3420D02*
G01X9300Y3420D01*
G01X10530Y2200D02*
G01X10530Y2530D01*
G01X10530Y3090D02*
G01X10530Y3420D01*
G01X9771Y6965D02*
G01X7409Y6965D01*
G01X9771Y9035D02*
G01X7409Y9035D01*
G01X6571Y6965D02*
G01X4209Y6965D01*
G01X6571Y9035D02*
G01X4209Y9035D01*
G01X5719Y2200D02*
G01X4500Y2200D01*
G01X4500Y3421D02*
G01X4500Y2200D01*
G01X5719Y3420D02*
G01X4500Y3420D01*
G01X5730Y2200D02*
G01X5730Y2530D01*
G01X5730Y3090D02*
G01X5730Y3420D01*
G01X3305Y11328D02*
G01X3305Y7195D01*
G01X3309Y7195D02*
G01X317Y7195D01*
G01X2730Y11328D02*
G01X2730Y7195D01*
G01X765Y11328D02*
G01X765Y7195D01*
G01X3267Y8683D02*
G01X3053Y8683D01*
G01X3053Y8081D01*
G01X3267Y8081D01*
G01X3278Y10580D02*
G01X3065Y10580D01*
G01X3065Y9978D01*
G01X3278Y9978D01*
G01X305Y11328D02*
G01X305Y7195D01*
G01X517Y11328D02*
G01X517Y7195D01*
G01X3298Y11340D02*
G01X305Y11340D01*
G01X10694Y7171D02*
G01X10694Y11305D01*
G01X10690Y11305D02*
G01X13682Y11305D01*
G01X11268Y7171D02*
G01X11268Y11305D01*
G01X13234Y7171D02*
G01X13234Y11305D01*
G01X10732Y9817D02*
G01X10946Y9817D01*
G01X10946Y10419D01*
G01X10732Y10419D01*
G01X10721Y7920D02*
G01X10934Y7920D01*
G01X10934Y8522D01*
G01X10721Y8522D01*
G01X13694Y7171D02*
G01X13694Y11305D01*
G01X13481Y7171D02*
G01X13481Y11305D01*
G01X10702Y7159D02*
G01X13694Y7159D01*
G54D27*
G01X9164Y1978D02*
G01X9164Y1544D01*
G01X8535Y1544D01*
G01X8535Y1978D01*
G01X9164Y2292D02*
G01X9164Y2726D01*
G01X8771Y2726D01*
G01X8535Y2726D01*
G01X8535Y2292D01*
G01X4365Y2028D02*
G01X4365Y1594D01*
G01X3734Y1594D01*
G01X3734Y2028D01*
G01X4365Y2342D02*
G01X4365Y2776D01*
G01X3971Y2776D01*
G01X3734Y2776D01*
G01X3734Y2342D01*
G54D28*
G01X10960Y4717D02*
G01X10960Y4283D01*
G01X10685Y4717D02*
G01X11355Y4717D01*
G01X10685Y4283D02*
G01X11355Y4283D01*
G54D27*
G01X10072Y4815D02*
G01X10506Y4815D01*
G01X10506Y4185D01*
G01X10072Y4185D01*
G01X9757Y4815D02*
G01X9323Y4815D01*
G01X9323Y4421D01*
G01X9323Y4185D01*
G01X9757Y4185D01*
G54D28*
G01X6161Y4717D02*
G01X6161Y4283D01*
G01X5884Y4717D02*
G01X6555Y4717D01*
G01X5884Y4283D02*
G01X6555Y4283D01*
G54D27*
G01X5271Y4815D02*
G01X5705Y4815D01*
G01X5705Y4185D01*
G01X5271Y4185D01*
G01X4957Y4815D02*
G01X4523Y4815D01*
G01X4523Y4421D01*
G01X4523Y4185D01*
G01X4957Y4185D01*
G54D28*
G01X10982Y5511D02*
G01X11417Y5511D01*
G01X10982Y5235D02*
G01X10982Y5905D01*
G01X11417Y5235D02*
G01X11417Y5905D01*
G54D27*
G01X10185Y5722D02*
G01X10185Y6155D01*
G01X10814Y6155D01*
G01X10814Y5722D01*
G01X10185Y5407D02*
G01X10185Y4974D01*
G01X10578Y4974D01*
G01X10814Y4974D01*
G01X10814Y5407D01*
G01X9335Y5722D02*
G01X9335Y6155D01*
G01X9964Y6155D01*
G01X9964Y5722D01*
G01X9335Y5407D02*
G01X9335Y4974D01*
G01X9728Y4974D01*
G01X9964Y4974D01*
G01X9964Y5407D01*
G01X13085Y5722D02*
G01X13085Y6155D01*
G01X13714Y6155D01*
G01X13714Y5722D01*
G01X13085Y5407D02*
G01X13085Y4974D01*
G01X13478Y4974D01*
G01X13714Y4974D01*
G01X13714Y5407D01*
G54D28*
G01X11632Y5511D02*
G01X12067Y5511D01*
G01X11632Y5235D02*
G01X11632Y5905D01*
G01X12067Y5235D02*
G01X12067Y5905D01*
G54D27*
G01X12235Y5722D02*
G01X12235Y6155D01*
G01X12864Y6155D01*
G01X12864Y5722D01*
G01X12235Y5407D02*
G01X12235Y4974D01*
G01X12628Y4974D01*
G01X12864Y4974D01*
G01X12864Y5407D01*
G54D10*
G01X9771Y9465D02*
G01X7409Y9465D01*
G01X9771Y11535D02*
G01X7409Y11535D01*
G01X6571Y9465D02*
G01X4209Y9465D01*
G01X6571Y11535D02*
G01X4209Y11535D01*
G54D28*
G01X6182Y5511D02*
G01X6617Y5511D01*
G01X6182Y5235D02*
G01X6182Y5905D01*
G01X6617Y5235D02*
G01X6617Y5905D01*
G54D27*
G01X5384Y5722D02*
G01X5384Y6156D01*
G01X6015Y6156D01*
G01X6015Y5722D01*
G01X5384Y5408D02*
G01X5384Y4974D01*
G01X5778Y4974D01*
G01X6015Y4974D01*
G01X6015Y5408D01*
G01X4534Y5722D02*
G01X4534Y6156D01*
G01X5165Y6156D01*
G01X5165Y5722D01*
G01X4534Y5408D02*
G01X4534Y4974D01*
G01X4928Y4974D01*
G01X5165Y4974D01*
G01X5165Y5408D01*
G01X8235Y5722D02*
G01X8235Y6156D01*
G01X8864Y6156D01*
G01X8864Y5722D01*
G01X8235Y5408D02*
G01X8235Y4974D01*
G01X8628Y4974D01*
G01X8864Y4974D01*
G01X8864Y5408D01*
G54D28*
G01X6832Y5511D02*
G01X7267Y5511D01*
G01X6832Y5235D02*
G01X6832Y5905D01*
G01X7267Y5235D02*
G01X7267Y5905D01*
G54D27*
G01X7434Y5722D02*
G01X7434Y6156D01*
G01X8064Y6156D01*
G01X8064Y5722D01*
G01X7434Y5408D02*
G01X7434Y4974D01*
G01X7828Y4974D01*
G01X8064Y4974D01*
G01X8064Y5408D01*
G54D10*
G01X3050Y6750D02*
G01X2350Y6750D01*
G01X2350Y5750D01*
G01X3050Y5750D01*
G01X3650Y5750D02*
G01X4350Y5750D01*
G01X4350Y6750D01*
G01X3650Y6750D01*
G01X10700Y2800D02*
G01X10700Y2100D01*
G01X11700Y2100D01*
G01X11700Y2800D01*
G01X11700Y3400D02*
G01X11700Y4100D01*
G01X10700Y4100D01*
G01X10700Y3400D01*
G01X5900Y2750D02*
G01X5900Y2050D01*
G01X6900Y2050D01*
G01X6900Y2750D01*
G01X6900Y3350D02*
G01X6900Y4050D01*
G01X5900Y4050D01*
G01X5900Y3350D01*
G54D27*
G01X11885Y3222D02*
G01X11885Y3655D01*
G01X12514Y3655D01*
G01X12514Y3222D01*
G01X11885Y2907D02*
G01X11885Y2474D01*
G01X12278Y2474D01*
G01X12514Y2474D01*
G01X12514Y2907D01*
G01X3171Y5565D02*
G01X3605Y5565D01*
G01X3605Y4935D01*
G01X3171Y4935D01*
G01X2857Y5565D02*
G01X2423Y5565D01*
G01X2423Y5171D01*
G01X2423Y4935D01*
G01X2857Y4935D01*
G01X3171Y4815D02*
G01X3605Y4815D01*
G01X3605Y4185D01*
G01X3171Y4185D01*
G01X2857Y4815D02*
G01X2423Y4815D01*
G01X2423Y4421D01*
G01X2423Y4185D01*
G01X2857Y4185D01*
G01X7084Y3172D02*
G01X7084Y3606D01*
G01X7715Y3606D01*
G01X7715Y3172D01*
G01X7084Y2858D02*
G01X7084Y2424D01*
G01X7478Y2424D01*
G01X7715Y2424D01*
G01X7715Y2858D01*
G01X10272Y1065D02*
G01X10705Y1065D01*
G01X10705Y435D01*
G01X10272Y435D01*
G01X9956Y1065D02*
G01X9523Y1065D01*
G01X9523Y671D01*
G01X9523Y435D01*
G01X9956Y435D01*
G54D29*
G01X5100Y1250D02*
G01X4350Y1250D01*
G01X4350Y250D01*
G01X9350Y250D01*
G01X9350Y1250D01*
G54D30*
G01X9350Y1250D02*
G01X5100Y1250D01*
G54D32*
G01X8750Y3350D02*
G01X8750Y3131D01*
G01X8764Y3088D01*
G01X8793Y3059D01*
G01X8836Y3044D01*
G01X8865Y3044D01*
G01X8910Y3059D01*
G01X8939Y3088D01*
G01X8953Y3131D01*
G01X8953Y3350D01*
G01X9050Y3291D02*
G01X9078Y3306D01*
G01X9122Y3350D01*
G01X9122Y3044D01*
G01X7486Y6805D02*
G01X7457Y6790D01*
G01X7428Y6761D01*
G01X7415Y6732D01*
G01X7400Y6688D01*
G01X7400Y6615D01*
G01X7415Y6572D01*
G01X7428Y6543D01*
G01X7457Y6514D01*
G01X7486Y6499D01*
G01X7544Y6499D01*
G01X7575Y6514D01*
G01X7603Y6543D01*
G01X7617Y6572D01*
G01X7632Y6615D01*
G01X7632Y6688D01*
G01X7617Y6732D01*
G01X7603Y6761D01*
G01X7575Y6790D01*
G01X7544Y6805D01*
G01X7486Y6805D01*
G01X7530Y6557D02*
G01X7617Y6470D01*
G01X7742Y6732D02*
G01X7742Y6746D01*
G01X7757Y6775D01*
G01X7771Y6790D01*
G01X7801Y6805D01*
G01X7859Y6805D01*
G01X7888Y6790D01*
G01X7903Y6775D01*
G01X7917Y6746D01*
G01X7917Y6717D01*
G01X7903Y6688D01*
G01X7873Y6645D01*
G01X7728Y6499D01*
G01X7932Y6499D01*
G01X4786Y6750D02*
G01X4757Y6735D01*
G01X4728Y6706D01*
G01X4715Y6676D01*
G01X4700Y6633D01*
G01X4700Y6560D01*
G01X4715Y6517D01*
G01X4728Y6488D01*
G01X4757Y6459D01*
G01X4786Y6444D01*
G01X4844Y6444D01*
G01X4875Y6459D01*
G01X4903Y6488D01*
G01X4917Y6517D01*
G01X4932Y6560D01*
G01X4932Y6633D01*
G01X4917Y6676D01*
G01X4903Y6706D01*
G01X4875Y6735D01*
G01X4844Y6750D01*
G01X4786Y6750D01*
G01X4830Y6501D02*
G01X4917Y6415D01*
G01X5028Y6691D02*
G01X5057Y6706D01*
G01X5101Y6750D01*
G01X5101Y6444D01*
G01X3900Y3900D02*
G01X3900Y3681D01*
G01X3915Y3638D01*
G01X3944Y3609D01*
G01X3986Y3594D01*
G01X4015Y3594D01*
G01X4059Y3609D01*
G01X4088Y3638D01*
G01X4103Y3681D01*
G01X4103Y3900D01*
G01X4213Y3826D02*
G01X4213Y3841D01*
G01X4228Y3870D01*
G01X4242Y3885D01*
G01X4271Y3900D01*
G01X4330Y3900D01*
G01X4359Y3885D01*
G01X4373Y3870D01*
G01X4388Y3841D01*
G01X4388Y3812D01*
G01X4373Y3783D01*
G01X4344Y3740D01*
G01X4200Y3594D01*
G01X4403Y3594D01*
G01X8000Y2300D02*
G01X8000Y1994D01*
G01X8000Y2300D02*
G01X8131Y2300D01*
G01X8175Y2285D01*
G01X8189Y2270D01*
G01X8203Y2241D01*
G01X8203Y2212D01*
G01X8189Y2183D01*
G01X8175Y2169D01*
G01X8131Y2153D01*
G01X8000Y2153D01*
G01X8102Y2153D02*
G01X8203Y1994D01*
G01X8300Y2241D02*
G01X8328Y2256D01*
G01X8372Y2300D01*
G01X8372Y1994D01*
G01X3800Y3200D02*
G01X3800Y2894D01*
G01X3800Y3200D02*
G01X3930Y3200D01*
G01X3975Y3185D01*
G01X3988Y3170D01*
G01X4003Y3141D01*
G01X4003Y3112D01*
G01X3988Y3083D01*
G01X3975Y3069D01*
G01X3930Y3053D01*
G01X3800Y3053D01*
G01X3901Y3053D02*
G01X4003Y2894D01*
G01X4113Y3126D02*
G01X4113Y3141D01*
G01X4128Y3170D01*
G01X4142Y3185D01*
G01X4171Y3200D01*
G01X4230Y3200D01*
G01X4259Y3185D01*
G01X4273Y3170D01*
G01X4288Y3141D01*
G01X4288Y3112D01*
G01X4273Y3083D01*
G01X4244Y3040D01*
G01X4100Y2894D01*
G01X4303Y2894D01*
G01X11550Y4650D02*
G01X11550Y4344D01*
G01X11550Y4650D02*
G01X11652Y4650D01*
G01X11694Y4635D01*
G01X11725Y4606D01*
G01X11739Y4576D01*
G01X11753Y4533D01*
G01X11753Y4460D01*
G01X11739Y4417D01*
G01X11725Y4388D01*
G01X11694Y4359D01*
G01X11652Y4344D01*
G01X11550Y4344D01*
G01X11850Y4591D02*
G01X11878Y4606D01*
G01X11922Y4650D01*
G01X11922Y4344D01*
G01X9018Y4226D02*
G01X9003Y4256D01*
G01X8975Y4285D01*
G01X8944Y4300D01*
G01X8886Y4300D01*
G01X8857Y4285D01*
G01X8828Y4256D01*
G01X8814Y4226D01*
G01X8800Y4183D01*
G01X8800Y4110D01*
G01X8814Y4067D01*
G01X8828Y4038D01*
G01X8857Y4009D01*
G01X8886Y3994D01*
G01X8944Y3994D01*
G01X8975Y4009D01*
G01X9003Y4038D01*
G01X9018Y4067D01*
G01X9114Y4241D02*
G01X9143Y4256D01*
G01X9186Y4300D01*
G01X9186Y3994D01*
G01X6750Y4650D02*
G01X6750Y4344D01*
G01X6750Y4650D02*
G01X6851Y4650D01*
G01X6894Y4635D01*
G01X6925Y4606D01*
G01X6938Y4576D01*
G01X6953Y4533D01*
G01X6953Y4460D01*
G01X6938Y4417D01*
G01X6925Y4388D01*
G01X6894Y4359D01*
G01X6851Y4344D01*
G01X6750Y4344D01*
G01X7063Y4576D02*
G01X7063Y4591D01*
G01X7078Y4620D01*
G01X7092Y4635D01*
G01X7121Y4650D01*
G01X7180Y4650D01*
G01X7209Y4635D01*
G01X7223Y4620D01*
G01X7238Y4591D01*
G01X7238Y4562D01*
G01X7223Y4533D01*
G01X7194Y4490D01*
G01X7050Y4344D01*
G01X7253Y4344D01*
G01X4117Y4576D02*
G01X4103Y4606D01*
G01X4075Y4635D01*
G01X4044Y4650D01*
G01X3986Y4650D01*
G01X3957Y4635D01*
G01X3928Y4606D01*
G01X3915Y4576D01*
G01X3900Y4533D01*
G01X3900Y4460D01*
G01X3915Y4417D01*
G01X3928Y4388D01*
G01X3957Y4359D01*
G01X3986Y4344D01*
G01X4044Y4344D01*
G01X4075Y4359D01*
G01X4103Y4388D01*
G01X4117Y4417D01*
G01X4228Y4576D02*
G01X4228Y4591D01*
G01X4242Y4620D01*
G01X4257Y4635D01*
G01X4286Y4650D01*
G01X4344Y4650D01*
G01X4373Y4635D01*
G01X4388Y4620D01*
G01X4403Y4591D01*
G01X4403Y4562D01*
G01X4388Y4533D01*
G01X4359Y4490D01*
G01X4213Y4344D01*
G01X4417Y4344D01*
G01X10950Y6600D02*
G01X10950Y6294D01*
G01X10950Y6600D02*
G01X11052Y6600D01*
G01X11094Y6585D01*
G01X11125Y6556D01*
G01X11139Y6526D01*
G01X11153Y6483D01*
G01X11153Y6410D01*
G01X11139Y6367D01*
G01X11125Y6338D01*
G01X11094Y6309D01*
G01X11052Y6294D01*
G01X10950Y6294D01*
G01X11278Y6600D02*
G01X11439Y6600D01*
G01X11351Y6483D01*
G01X11394Y6483D01*
G01X11423Y6469D01*
G01X11439Y6453D01*
G01X11452Y6410D01*
G01X11452Y6381D01*
G01X11439Y6338D01*
G01X11410Y6309D01*
G01X11365Y6294D01*
G01X11322Y6294D01*
G01X11278Y6309D01*
G01X11264Y6323D01*
G01X11250Y6351D01*
G01X10300Y6600D02*
G01X10300Y6294D01*
G01X10300Y6600D02*
G01X10431Y6600D01*
G01X10475Y6585D01*
G01X10489Y6570D01*
G01X10503Y6541D01*
G01X10503Y6512D01*
G01X10489Y6483D01*
G01X10475Y6469D01*
G01X10431Y6453D01*
G01X10300Y6453D01*
G01X10402Y6453D02*
G01X10503Y6294D01*
G01X10628Y6600D02*
G01X10789Y6600D01*
G01X10701Y6483D01*
G01X10744Y6483D01*
G01X10773Y6469D01*
G01X10789Y6453D01*
G01X10802Y6410D01*
G01X10802Y6381D01*
G01X10789Y6338D01*
G01X10760Y6309D01*
G01X10715Y6294D01*
G01X10672Y6294D01*
G01X10628Y6309D01*
G01X10614Y6323D01*
G01X10600Y6351D01*
G01X9400Y6600D02*
G01X9400Y6294D01*
G01X9400Y6600D02*
G01X9531Y6600D01*
G01X9575Y6585D01*
G01X9589Y6570D01*
G01X9603Y6541D01*
G01X9603Y6512D01*
G01X9589Y6483D01*
G01X9575Y6469D01*
G01X9531Y6453D01*
G01X9400Y6453D01*
G01X9502Y6453D02*
G01X9603Y6294D01*
G01X9844Y6600D02*
G01X9700Y6396D01*
G01X9918Y6396D01*
G01X9844Y6600D02*
G01X9844Y6294D01*
G01X13200Y4850D02*
G01X13200Y4544D01*
G01X13200Y4850D02*
G01X13331Y4850D01*
G01X13375Y4835D01*
G01X13389Y4820D01*
G01X13403Y4791D01*
G01X13403Y4762D01*
G01X13389Y4733D01*
G01X13375Y4719D01*
G01X13331Y4703D01*
G01X13200Y4703D01*
G01X13302Y4703D02*
G01X13403Y4544D01*
G01X13673Y4806D02*
G01X13660Y4835D01*
G01X13615Y4850D01*
G01X13586Y4850D01*
G01X13543Y4835D01*
G01X13514Y4791D01*
G01X13500Y4719D01*
G01X13500Y4646D01*
G01X13514Y4588D01*
G01X13543Y4559D01*
G01X13586Y4544D01*
G01X13601Y4544D01*
G01X13644Y4559D01*
G01X13673Y4588D01*
G01X13689Y4631D01*
G01X13689Y4646D01*
G01X13673Y4690D01*
G01X13644Y4719D01*
G01X13601Y4733D01*
G01X13586Y4733D01*
G01X13543Y4719D01*
G01X13514Y4690D01*
G01X13500Y4646D01*
G01X11600Y6350D02*
G01X11600Y6044D01*
G01X11600Y6350D02*
G01X11702Y6350D01*
G01X11744Y6335D01*
G01X11775Y6306D01*
G01X11789Y6276D01*
G01X11803Y6233D01*
G01X11803Y6160D01*
G01X11789Y6117D01*
G01X11775Y6088D01*
G01X11744Y6059D01*
G01X11702Y6044D01*
G01X11600Y6044D01*
G01X12044Y6350D02*
G01X11900Y6146D01*
G01X12118Y6146D01*
G01X12044Y6350D02*
G01X12044Y6044D01*
G01X12300Y4850D02*
G01X12300Y4544D01*
G01X12300Y4850D02*
G01X12431Y4850D01*
G01X12475Y4835D01*
G01X12489Y4820D01*
G01X12503Y4791D01*
G01X12503Y4762D01*
G01X12489Y4733D01*
G01X12475Y4719D01*
G01X12431Y4703D01*
G01X12300Y4703D01*
G01X12402Y4703D02*
G01X12503Y4544D01*
G01X12773Y4850D02*
G01X12628Y4850D01*
G01X12614Y4719D01*
G01X12628Y4733D01*
G01X12672Y4748D01*
G01X12715Y4748D01*
G01X12760Y4733D01*
G01X12789Y4703D01*
G01X12802Y4660D01*
G01X12802Y4631D01*
G01X12789Y4588D01*
G01X12760Y4559D01*
G01X12715Y4544D01*
G01X12672Y4544D01*
G01X12628Y4559D01*
G01X12614Y4573D01*
G01X12600Y4601D01*
G54D33*
G01X8436Y12000D02*
G01X8407Y11985D01*
G01X8378Y11956D01*
G01X8364Y11926D01*
G01X8350Y11883D01*
G01X8350Y11810D01*
G01X8364Y11767D01*
G01X8378Y11738D01*
G01X8407Y11709D01*
G01X8436Y11694D01*
G01X8494Y11694D01*
G01X8525Y11709D01*
G01X8553Y11738D01*
G01X8568Y11767D01*
G01X8582Y11810D01*
G01X8582Y11883D01*
G01X8568Y11926D01*
G01X8553Y11956D01*
G01X8525Y11985D01*
G01X8494Y12000D01*
G01X8436Y12000D01*
G01X8481Y11751D02*
G01X8568Y11665D01*
G01X8707Y12000D02*
G01X8868Y12000D01*
G01X8781Y11883D01*
G01X8823Y11883D01*
G01X8852Y11869D01*
G01X8868Y11853D01*
G01X8881Y11810D01*
G01X8881Y11781D01*
G01X8868Y11738D01*
G01X8839Y11709D01*
G01X8794Y11694D01*
G01X8751Y11694D01*
G01X8707Y11709D01*
G01X8693Y11723D01*
G01X8678Y11751D01*
G54D32*
G01X5336Y12000D02*
G01X5307Y11985D01*
G01X5278Y11956D01*
G01X5265Y11926D01*
G01X5250Y11883D01*
G01X5250Y11810D01*
G01X5265Y11767D01*
G01X5278Y11738D01*
G01X5307Y11709D01*
G01X5336Y11694D01*
G01X5394Y11694D01*
G01X5425Y11709D01*
G01X5453Y11738D01*
G01X5467Y11767D01*
G01X5482Y11810D01*
G01X5482Y11883D01*
G01X5467Y11926D01*
G01X5453Y11956D01*
G01X5425Y11985D01*
G01X5394Y12000D01*
G01X5336Y12000D01*
G01X5380Y11751D02*
G01X5467Y11665D01*
G01X5723Y12000D02*
G01X5578Y11796D01*
G01X5796Y11796D01*
G01X5723Y12000D02*
G01X5723Y11694D01*
G01X6150Y6350D02*
G01X6150Y6044D01*
G01X6150Y6350D02*
G01X6251Y6350D01*
G01X6294Y6335D01*
G01X6325Y6306D01*
G01X6338Y6276D01*
G01X6353Y6233D01*
G01X6353Y6160D01*
G01X6338Y6117D01*
G01X6325Y6088D01*
G01X6294Y6059D01*
G01X6251Y6044D01*
G01X6150Y6044D01*
G01X6623Y6350D02*
G01X6478Y6350D01*
G01X6463Y6219D01*
G01X6478Y6233D01*
G01X6521Y6248D01*
G01X6565Y6248D01*
G01X6609Y6233D01*
G01X6638Y6203D01*
G01X6653Y6160D01*
G01X6653Y6131D01*
G01X6638Y6088D01*
G01X6609Y6059D01*
G01X6565Y6044D01*
G01X6521Y6044D01*
G01X6478Y6059D01*
G01X6463Y6073D01*
G01X6450Y6101D01*
G01X5500Y6600D02*
G01X5500Y6294D01*
G01X5500Y6600D02*
G01X5630Y6600D01*
G01X5675Y6585D01*
G01X5688Y6570D01*
G01X5703Y6541D01*
G01X5703Y6512D01*
G01X5688Y6483D01*
G01X5675Y6469D01*
G01X5630Y6453D01*
G01X5500Y6453D01*
G01X5601Y6453D02*
G01X5703Y6294D01*
G01X5871Y6600D02*
G01X5828Y6585D01*
G01X5813Y6556D01*
G01X5813Y6526D01*
G01X5828Y6498D01*
G01X5857Y6483D01*
G01X5915Y6469D01*
G01X5959Y6453D01*
G01X5988Y6425D01*
G01X6003Y6396D01*
G01X6003Y6351D01*
G01X5988Y6323D01*
G01X5973Y6309D01*
G01X5930Y6294D01*
G01X5871Y6294D01*
G01X5828Y6309D01*
G01X5813Y6323D01*
G01X5800Y6351D01*
G01X5800Y6396D01*
G01X5813Y6425D01*
G01X5842Y6453D01*
G01X5886Y6469D01*
G01X5944Y6483D01*
G01X5973Y6498D01*
G01X5988Y6526D01*
G01X5988Y6556D01*
G01X5973Y6585D01*
G01X5930Y6600D01*
G01X5871Y6600D01*
G01X3950Y5550D02*
G01X3950Y5244D01*
G01X3950Y5550D02*
G01X4080Y5550D01*
G01X4125Y5535D01*
G01X4138Y5520D01*
G01X4153Y5491D01*
G01X4153Y5462D01*
G01X4138Y5433D01*
G01X4125Y5419D01*
G01X4080Y5403D01*
G01X3950Y5403D01*
G01X4051Y5403D02*
G01X4153Y5244D01*
G01X4453Y5550D02*
G01X4307Y5244D01*
G01X4250Y5550D02*
G01X4453Y5550D01*
G01X8350Y4850D02*
G01X8350Y4544D01*
G01X8350Y4850D02*
G01X8481Y4850D01*
G01X8525Y4835D01*
G01X8539Y4820D01*
G01X8553Y4791D01*
G01X8553Y4762D01*
G01X8539Y4733D01*
G01X8525Y4719D01*
G01X8481Y4703D01*
G01X8350Y4703D01*
G01X8452Y4703D02*
G01X8553Y4544D01*
G01X8839Y4748D02*
G01X8823Y4703D01*
G01X8794Y4675D01*
G01X8751Y4660D01*
G01X8736Y4660D01*
G01X8693Y4675D01*
G01X8664Y4703D01*
G01X8650Y4748D01*
G01X8650Y4762D01*
G01X8664Y4806D01*
G01X8693Y4835D01*
G01X8736Y4850D01*
G01X8751Y4850D01*
G01X8794Y4835D01*
G01X8823Y4806D01*
G01X8839Y4748D01*
G01X8839Y4675D01*
G01X8823Y4601D01*
G01X8794Y4559D01*
G01X8751Y4544D01*
G01X8722Y4544D01*
G01X8678Y4559D01*
G01X8664Y4588D01*
G01X6800Y6350D02*
G01X6800Y6044D01*
G01X6800Y6350D02*
G01X6901Y6350D01*
G01X6944Y6335D01*
G01X6975Y6306D01*
G01X6988Y6276D01*
G01X7003Y6233D01*
G01X7003Y6160D01*
G01X6988Y6117D01*
G01X6975Y6088D01*
G01X6944Y6059D01*
G01X6901Y6044D01*
G01X6800Y6044D01*
G01X7273Y6306D02*
G01X7259Y6335D01*
G01X7215Y6350D01*
G01X7186Y6350D01*
G01X7142Y6335D01*
G01X7113Y6291D01*
G01X7100Y6219D01*
G01X7100Y6146D01*
G01X7113Y6088D01*
G01X7142Y6059D01*
G01X7186Y6044D01*
G01X7201Y6044D01*
G01X7244Y6059D01*
G01X7273Y6088D01*
G01X7288Y6131D01*
G01X7288Y6146D01*
G01X7273Y6190D01*
G01X7244Y6219D01*
G01X7201Y6233D01*
G01X7186Y6233D01*
G01X7142Y6219D01*
G01X7113Y6190D01*
G01X7100Y6146D01*
G01X7450Y4850D02*
G01X7450Y4544D01*
G01X7450Y4850D02*
G01X7580Y4850D01*
G01X7625Y4835D01*
G01X7638Y4820D01*
G01X7653Y4791D01*
G01X7653Y4762D01*
G01X7638Y4733D01*
G01X7625Y4719D01*
G01X7580Y4703D01*
G01X7450Y4703D01*
G01X7551Y4703D02*
G01X7653Y4544D01*
G01X7750Y4791D02*
G01X7778Y4806D01*
G01X7821Y4850D01*
G01X7821Y4544D01*
G01X8006Y4850D02*
G01X7961Y4835D01*
G01X7932Y4791D01*
G01X7917Y4719D01*
G01X7917Y4675D01*
G01X7932Y4601D01*
G01X7961Y4559D01*
G01X8006Y4544D01*
G01X8035Y4544D01*
G01X8077Y4559D01*
G01X8106Y4601D01*
G01X8122Y4675D01*
G01X8122Y4719D01*
G01X8106Y4791D01*
G01X8077Y4835D01*
G01X8035Y4850D01*
G01X8006Y4850D01*
G01X1917Y6276D02*
G01X1903Y6306D01*
G01X1875Y6335D01*
G01X1844Y6350D01*
G01X1786Y6350D01*
G01X1757Y6335D01*
G01X1728Y6306D01*
G01X1715Y6276D01*
G01X1700Y6233D01*
G01X1700Y6160D01*
G01X1715Y6117D01*
G01X1728Y6088D01*
G01X1757Y6059D01*
G01X1786Y6044D01*
G01X1844Y6044D01*
G01X1875Y6059D01*
G01X1903Y6088D01*
G01X1917Y6117D01*
G01X2217Y6350D02*
G01X2071Y6044D01*
G01X2013Y6350D02*
G01X2217Y6350D01*
G01X11168Y1876D02*
G01X11153Y1906D01*
G01X11125Y1935D01*
G01X11094Y1950D01*
G01X11036Y1950D01*
G01X11007Y1935D01*
G01X10978Y1906D01*
G01X10964Y1876D01*
G01X10950Y1833D01*
G01X10950Y1760D01*
G01X10964Y1717D01*
G01X10978Y1688D01*
G01X11007Y1659D01*
G01X11036Y1644D01*
G01X11094Y1644D01*
G01X11125Y1659D01*
G01X11153Y1688D01*
G01X11168Y1717D01*
G01X11336Y1950D02*
G01X11293Y1935D01*
G01X11278Y1906D01*
G01X11278Y1876D01*
G01X11293Y1848D01*
G01X11322Y1833D01*
G01X11381Y1819D01*
G01X11423Y1803D01*
G01X11452Y1775D01*
G01X11468Y1746D01*
G01X11468Y1701D01*
G01X11452Y1673D01*
G01X11439Y1659D01*
G01X11394Y1644D01*
G01X11336Y1644D01*
G01X11293Y1659D01*
G01X11278Y1673D01*
G01X11264Y1701D01*
G01X11264Y1746D01*
G01X11278Y1775D01*
G01X11307Y1803D01*
G01X11351Y1819D01*
G01X11410Y1833D01*
G01X11439Y1848D01*
G01X11452Y1876D01*
G01X11452Y1906D01*
G01X11439Y1935D01*
G01X11394Y1950D01*
G01X11336Y1950D01*
G01X6367Y1826D02*
G01X6353Y1856D01*
G01X6325Y1885D01*
G01X6294Y1900D01*
G01X6236Y1900D01*
G01X6207Y1885D01*
G01X6178Y1856D01*
G01X6165Y1826D01*
G01X6150Y1783D01*
G01X6150Y1710D01*
G01X6165Y1667D01*
G01X6178Y1638D01*
G01X6207Y1609D01*
G01X6236Y1594D01*
G01X6294Y1594D01*
G01X6325Y1609D01*
G01X6353Y1638D01*
G01X6367Y1667D01*
G01X6653Y1798D02*
G01X6638Y1753D01*
G01X6609Y1725D01*
G01X6565Y1710D01*
G01X6551Y1710D01*
G01X6507Y1725D01*
G01X6478Y1753D01*
G01X6463Y1798D01*
G01X6463Y1812D01*
G01X6478Y1856D01*
G01X6507Y1885D01*
G01X6551Y1900D01*
G01X6565Y1900D01*
G01X6609Y1885D01*
G01X6638Y1856D01*
G01X6653Y1798D01*
G01X6653Y1725D01*
G01X6638Y1651D01*
G01X6609Y1609D01*
G01X6565Y1594D01*
G01X6536Y1594D01*
G01X6492Y1609D01*
G01X6478Y1638D01*
G01X12868Y3176D02*
G01X12853Y3206D01*
G01X12825Y3235D01*
G01X12794Y3250D01*
G01X12736Y3250D01*
G01X12707Y3235D01*
G01X12678Y3206D01*
G01X12664Y3176D01*
G01X12650Y3133D01*
G01X12650Y3060D01*
G01X12664Y3017D01*
G01X12678Y2988D01*
G01X12707Y2959D01*
G01X12736Y2944D01*
G01X12794Y2944D01*
G01X12825Y2959D01*
G01X12853Y2988D01*
G01X12868Y3017D01*
G01X12993Y3250D02*
G01X13152Y3250D01*
G01X13065Y3133D01*
G01X13110Y3133D01*
G01X13139Y3119D01*
G01X13152Y3103D01*
G01X13168Y3060D01*
G01X13168Y3031D01*
G01X13152Y2988D01*
G01X13123Y2959D01*
G01X13081Y2944D01*
G01X13036Y2944D01*
G01X12993Y2959D01*
G01X12978Y2973D01*
G01X12964Y3001D01*
G01X1967Y5326D02*
G01X1953Y5356D01*
G01X1925Y5385D01*
G01X1894Y5400D01*
G01X1836Y5400D01*
G01X1807Y5385D01*
G01X1778Y5356D01*
G01X1765Y5326D01*
G01X1750Y5283D01*
G01X1750Y5210D01*
G01X1765Y5167D01*
G01X1778Y5138D01*
G01X1807Y5109D01*
G01X1836Y5094D01*
G01X1894Y5094D01*
G01X1925Y5109D01*
G01X1953Y5138D01*
G01X1967Y5167D01*
G01X2209Y5400D02*
G01X2063Y5196D01*
G01X2282Y5196D01*
G01X2209Y5400D02*
G01X2209Y5094D01*
G01X1967Y4576D02*
G01X1953Y4606D01*
G01X1925Y4635D01*
G01X1894Y4650D01*
G01X1836Y4650D01*
G01X1807Y4635D01*
G01X1778Y4606D01*
G01X1765Y4576D01*
G01X1750Y4533D01*
G01X1750Y4460D01*
G01X1765Y4417D01*
G01X1778Y4388D01*
G01X1807Y4359D01*
G01X1836Y4344D01*
G01X1894Y4344D01*
G01X1925Y4359D01*
G01X1953Y4388D01*
G01X1967Y4417D01*
G01X2238Y4650D02*
G01X2092Y4650D01*
G01X2078Y4519D01*
G01X2092Y4533D01*
G01X2136Y4548D01*
G01X2180Y4548D01*
G01X2223Y4533D01*
G01X2253Y4503D01*
G01X2267Y4460D01*
G01X2267Y4431D01*
G01X2253Y4388D01*
G01X2223Y4359D01*
G01X2180Y4344D01*
G01X2136Y4344D01*
G01X2092Y4359D01*
G01X2078Y4373D01*
G01X2063Y4401D01*
G01X7367Y2226D02*
G01X7353Y2256D01*
G01X7325Y2285D01*
G01X7294Y2300D01*
G01X7236Y2300D01*
G01X7207Y2285D01*
G01X7178Y2256D01*
G01X7165Y2226D01*
G01X7150Y2183D01*
G01X7150Y2110D01*
G01X7165Y2067D01*
G01X7178Y2038D01*
G01X7207Y2009D01*
G01X7236Y1994D01*
G01X7294Y1994D01*
G01X7325Y2009D01*
G01X7353Y2038D01*
G01X7367Y2067D01*
G01X7638Y2256D02*
G01X7623Y2285D01*
G01X7580Y2300D01*
G01X7551Y2300D01*
G01X7507Y2285D01*
G01X7478Y2241D01*
G01X7463Y2169D01*
G01X7463Y2096D01*
G01X7478Y2038D01*
G01X7507Y2009D01*
G01X7551Y1994D01*
G01X7565Y1994D01*
G01X7609Y2009D01*
G01X7638Y2038D01*
G01X7653Y2081D01*
G01X7653Y2096D01*
G01X7638Y2140D01*
G01X7609Y2169D01*
G01X7565Y2183D01*
G01X7551Y2183D01*
G01X7507Y2169D01*
G01X7478Y2140D01*
G01X7463Y2096D01*
G01X10850Y900D02*
G01X10850Y594D01*
G01X10850Y900D02*
G01X10981Y900D01*
G01X11025Y885D01*
G01X11039Y870D01*
G01X11053Y841D01*
G01X11053Y812D01*
G01X11039Y783D01*
G01X11025Y769D01*
G01X10981Y753D01*
G01X10850Y753D01*
G01X10952Y753D02*
G01X11053Y594D01*
G01X11150Y841D02*
G01X11178Y856D01*
G01X11222Y900D01*
G01X11222Y594D01*
G01X11318Y841D02*
G01X11347Y856D01*
G01X11390Y900D01*
G01X11390Y594D01*
G01X3500Y891D02*
G01X3500Y585D01*
G01X3857Y949D02*
G01X3596Y483D01*
G01X4040Y891D02*
G01X4011Y876D01*
G01X3982Y847D01*
G01X3967Y818D01*
G01X3953Y774D01*
G01X3953Y701D01*
G01X3967Y658D01*
G01X3982Y629D01*
G01X4011Y600D01*
G01X4040Y585D01*
G01X4098Y585D01*
G01X4128Y600D01*
G01X4157Y629D01*
G01X4171Y658D01*
G01X4186Y701D01*
G01X4186Y774D01*
G01X4171Y818D01*
G01X4157Y847D01*
G01X4128Y876D01*
G01X4098Y891D01*
G01X4040Y891D01*
G54D29*
G01X450Y3328D02*
G01X450Y2850D01*
G01X767Y3328D02*
G01X767Y2850D01*
G01X450Y3100D02*
G01X767Y3100D01*
G01X1267Y3328D02*
G01X1267Y2850D01*
G01X1267Y3328D02*
G01X1473Y3328D01*
G01X1540Y3305D01*
G01X1563Y3282D01*
G01X1586Y3237D01*
G01X1586Y3191D01*
G01X1563Y3146D01*
G01X1540Y3123D01*
G01X1473Y3100D01*
G01X1267Y3100D02*
G01X1473Y3100D01*
G01X1540Y3078D01*
G01X1563Y3055D01*
G01X1586Y3010D01*
G01X1586Y2941D01*
G01X1563Y2896D01*
G01X1540Y2873D01*
G01X1473Y2850D01*
G01X1267Y2850D01*
G01X1736Y3169D02*
G01X1736Y2850D01*
G01X1736Y3032D02*
G01X1759Y3100D01*
G01X1805Y3146D01*
G01X1850Y3169D01*
G01X1917Y3169D01*
G01X2067Y3328D02*
G01X2090Y3305D01*
G01X2113Y3328D01*
G01X2090Y3350D01*
G01X2067Y3328D01*
G01X2090Y3169D02*
G01X2090Y2850D01*
G01X2536Y3328D02*
G01X2536Y2850D01*
G01X2536Y3100D02*
G01X2490Y3146D01*
G01X2444Y3169D01*
G01X2376Y3169D01*
G01X2332Y3146D01*
G01X2286Y3100D01*
G01X2263Y3032D01*
G01X2263Y2987D01*
G01X2286Y2919D01*
G01X2332Y2873D01*
G01X2376Y2850D01*
G01X2444Y2850D01*
G01X2490Y2873D01*
G01X2536Y2919D01*
G01X2959Y3169D02*
G01X2959Y2805D01*
G01X2936Y2737D01*
G01X2913Y2714D01*
G01X2867Y2691D01*
G01X2800Y2691D01*
G01X2755Y2714D01*
G01X2959Y3100D02*
G01X2913Y3146D01*
G01X2867Y3169D01*
G01X2800Y3169D01*
G01X2755Y3146D01*
G01X2709Y3100D01*
G01X2686Y3032D01*
G01X2686Y2987D01*
G01X2709Y2919D01*
G01X2755Y2873D01*
G01X2800Y2850D01*
G01X2867Y2850D01*
G01X2913Y2873D01*
G01X2959Y2919D01*
G01X3109Y3032D02*
G01X3382Y3032D01*
G01X3382Y3078D01*
G01X3359Y3123D01*
G01X3336Y3146D01*
G01X3290Y3169D01*
G01X3223Y3169D01*
G01X3176Y3146D01*
G01X3132Y3100D01*
G01X3109Y3032D01*
G01X3109Y2987D01*
G01X3132Y2919D01*
G01X3176Y2873D01*
G01X3223Y2850D01*
G01X3290Y2850D01*
G01X3336Y2873D01*
G01X3382Y2919D01*
G54D32*
G01X750Y2599D02*
G01X750Y2293D01*
G01X846Y2497D02*
G01X932Y2293D01*
G01X1021Y2497D02*
G01X932Y2293D01*
G01X1290Y2497D02*
G01X1290Y2293D01*
G01X1290Y2453D02*
G01X1261Y2482D01*
G01X1232Y2497D01*
G01X1188Y2497D01*
G01X1159Y2482D01*
G01X1130Y2453D01*
G01X1117Y2409D01*
G01X1117Y2380D01*
G01X1130Y2337D01*
G01X1159Y2308D01*
G01X1188Y2293D01*
G01X1232Y2293D01*
G01X1261Y2308D01*
G01X1290Y2337D01*
G01X1386Y2497D02*
G01X1386Y2293D01*
G01X1386Y2439D02*
G01X1430Y2482D01*
G01X1459Y2497D01*
G01X1503Y2497D01*
G01X1532Y2482D01*
G01X1546Y2439D01*
G01X1546Y2293D01*
G01X1867Y2599D02*
G01X1867Y2293D01*
G01X1867Y2599D02*
G01X1998Y2599D01*
G01X2042Y2584D01*
G01X2055Y2569D01*
G01X2071Y2540D01*
G01X2071Y2511D01*
G01X2055Y2482D01*
G01X2042Y2468D01*
G01X1998Y2453D01*
G01X1867Y2453D02*
G01X1998Y2453D01*
G01X2042Y2439D01*
G01X2055Y2424D01*
G01X2071Y2395D01*
G01X2071Y2351D01*
G01X2055Y2322D01*
G01X2042Y2308D01*
G01X1998Y2293D01*
G01X1867Y2293D01*
G01X2167Y2497D02*
G01X2167Y2293D01*
G01X2167Y2409D02*
G01X2180Y2453D01*
G01X2209Y2482D01*
G01X2238Y2497D01*
G01X2282Y2497D01*
G01X2423Y2599D02*
G01X2423Y2351D01*
G01X2436Y2308D01*
G01X2465Y2293D01*
G01X2494Y2293D01*
G01X2378Y2497D02*
G01X2480Y2497D01*
G01X2765Y2497D02*
G01X2765Y2293D01*
G01X2765Y2453D02*
G01X2736Y2482D01*
G01X2707Y2497D01*
G01X2663Y2497D01*
G01X2634Y2482D01*
G01X2605Y2453D01*
G01X2590Y2409D01*
G01X2590Y2380D01*
G01X2605Y2337D01*
G01X2634Y2308D01*
G01X2663Y2293D01*
G01X2707Y2293D01*
G01X2736Y2308D01*
G01X2765Y2337D01*
G01X2861Y2497D02*
G01X2861Y2293D01*
G01X2861Y2439D02*
G01X2905Y2482D01*
G01X2934Y2497D01*
G01X2978Y2497D01*
G01X3007Y2482D01*
G01X3021Y2439D01*
G01X3021Y2293D01*
G01X350Y11850D02*
G01X465Y11544D01*
G01X582Y11850D02*
G01X465Y11544D01*
G01X896Y11776D02*
G01X882Y11806D01*
G01X853Y11835D01*
G01X823Y11850D01*
G01X765Y11850D01*
G01X736Y11835D01*
G01X707Y11806D01*
G01X692Y11776D01*
G01X678Y11733D01*
G01X678Y11660D01*
G01X692Y11617D01*
G01X707Y11588D01*
G01X736Y11559D01*
G01X765Y11544D01*
G01X823Y11544D01*
G01X853Y11559D01*
G01X882Y11588D01*
G01X896Y11617D01*
G01X1211Y11776D02*
G01X1196Y11806D01*
G01X1167Y11835D01*
G01X1138Y11850D01*
G01X1080Y11850D01*
G01X1051Y11835D01*
G01X1021Y11806D01*
G01X1007Y11776D01*
G01X992Y11733D01*
G01X992Y11660D01*
G01X1007Y11617D01*
G01X1021Y11588D01*
G01X1051Y11559D01*
G01X1080Y11544D01*
G01X1138Y11544D01*
G01X1167Y11559D01*
G01X1196Y11588D01*
G01X1211Y11617D01*
G01X567Y6876D02*
G01X553Y6906D01*
G01X525Y6935D01*
G01X494Y6950D01*
G01X436Y6950D01*
G01X407Y6935D01*
G01X378Y6906D01*
G01X365Y6876D01*
G01X350Y6833D01*
G01X350Y6760D01*
G01X365Y6717D01*
G01X378Y6688D01*
G01X407Y6659D01*
G01X436Y6644D01*
G01X494Y6644D01*
G01X525Y6659D01*
G01X553Y6688D01*
G01X567Y6717D01*
G01X567Y6760D01*
G01X494Y6760D02*
G01X567Y6760D01*
G01X663Y6950D02*
G01X663Y6644D01*
G01X663Y6950D02*
G01X867Y6644D01*
G01X867Y6950D02*
G01X867Y6644D01*
G01X963Y6950D02*
G01X963Y6644D01*
G01X963Y6950D02*
G01X1065Y6950D01*
G01X1109Y6935D01*
G01X1138Y6906D01*
G01X1153Y6876D01*
G01X1167Y6833D01*
G01X1167Y6760D01*
G01X1153Y6717D01*
G01X1138Y6688D01*
G01X1109Y6659D01*
G01X1065Y6644D01*
G01X963Y6644D01*
G01X12586Y11825D02*
G01X12557Y11810D01*
G01X12528Y11781D01*
G01X12514Y11751D01*
G01X12500Y11708D01*
G01X12500Y11635D01*
G01X12514Y11592D01*
G01X12528Y11563D01*
G01X12557Y11534D01*
G01X12586Y11519D01*
G01X12644Y11519D01*
G01X12675Y11534D01*
G01X12703Y11563D01*
G01X12718Y11592D01*
G01X12732Y11635D01*
G01X12732Y11708D01*
G01X12718Y11751D01*
G01X12703Y11781D01*
G01X12675Y11810D01*
G01X12644Y11825D01*
G01X12586Y11825D01*
G01X12828Y11825D02*
G01X12828Y11606D01*
G01X12843Y11563D01*
G01X12872Y11534D01*
G01X12915Y11519D01*
G01X12944Y11519D01*
G01X12989Y11534D01*
G01X13018Y11563D01*
G01X13031Y11606D01*
G01X13031Y11825D01*
G01X13230Y11825D02*
G01X13230Y11519D01*
G01X13127Y11825D02*
G01X13331Y11825D01*
G01X13427Y11766D02*
G01X13456Y11781D01*
G01X13501Y11825D01*
G01X13501Y11519D01*
G01X12686Y6925D02*
G01X12657Y6910D01*
G01X12628Y6881D01*
G01X12614Y6851D01*
G01X12600Y6808D01*
G01X12600Y6735D01*
G01X12614Y6692D01*
G01X12628Y6663D01*
G01X12657Y6634D01*
G01X12686Y6619D01*
G01X12744Y6619D01*
G01X12775Y6634D01*
G01X12803Y6663D01*
G01X12818Y6692D01*
G01X12832Y6735D01*
G01X12832Y6808D01*
G01X12818Y6851D01*
G01X12803Y6881D01*
G01X12775Y6910D01*
G01X12744Y6925D01*
G01X12686Y6925D01*
G01X12928Y6925D02*
G01X12928Y6706D01*
G01X12943Y6663D01*
G01X12972Y6634D01*
G01X13015Y6619D01*
G01X13044Y6619D01*
G01X13089Y6634D01*
G01X13118Y6663D01*
G01X13131Y6706D01*
G01X13131Y6925D01*
G01X13330Y6925D02*
G01X13330Y6619D01*
G01X13227Y6925D02*
G01X13431Y6925D01*
G01X13543Y6851D02*
G01X13543Y6866D01*
G01X13556Y6895D01*
G01X13572Y6910D01*
G01X13601Y6925D01*
G01X13659Y6925D01*
G01X13688Y6910D01*
G01X13702Y6895D01*
G01X13717Y6866D01*
G01X13717Y6837D01*
G01X13702Y6808D01*
G01X13672Y6765D01*
G01X13527Y6619D01*
G01X13731Y6619D01*
G54D10*
G75*
G01X10530Y2540D02*
G2X10530Y3090I86J275D01*
G01*
G54D31*
G75*
G01X10125Y7025D02*
G3X10126Y7025I1J-49D01*
G01*
G75*
G01X6925Y7025D02*
G3X6926Y7025I1J-49D01*
G01*
G54D10*
G75*
G01X5730Y2540D02*
G2X5730Y3090I86J275D01*
G01*
G54D31*
G75*
G01X10125Y9525D02*
G3X10126Y9525I1J-49D01*
G01*
G75*
G01X6925Y9525D02*
G3X6926Y9525I1J-49D01*
G01*
M00*
M02*
