G04 ---------------------------- Layer name :BOTTOM SILK LAYER*
G04 EasyEDA v5.6.10, Sun, 08 Jul 2018 18:09:17 GMT*
G04 afe9f61c7a5b4e3abdc74997a70e8aea*
G04 Gerber Generator version 0.2*
G04 Scale: 100 percent, Rotated: No, Reflected: No *
G04 Dimensions in inches *
G04 leading zeros omitted , absolute positions ,2 integer and 4 decimal *
%FSLAX24Y24*%
%MOIN*%
G90*
G70D02*

%ADD29C,0.008000*%
%ADD32C,0.006000*%

%LPD*%
G54D32*
G01X9604Y1650D02*
G01X9604Y1344D01*
G01X9604Y1650D02*
G01X9415Y1650D01*
G01X9604Y1504D02*
G01X9487Y1504D01*
G01X9604Y1344D02*
G01X9415Y1344D01*
G01X9319Y1650D02*
G01X9319Y1344D01*
G01X9319Y1650D02*
G01X9115Y1344D01*
G01X9115Y1650D02*
G01X9115Y1344D01*
G01X8795Y1650D02*
G01X8795Y1344D01*
G01X8795Y1650D02*
G01X8664Y1650D01*
G01X8620Y1635D01*
G01X8606Y1620D01*
G01X8591Y1591D01*
G01X8591Y1548D01*
G01X8606Y1519D01*
G01X8620Y1504D01*
G01X8664Y1490D01*
G01X8795Y1490D01*
G01X8495Y1650D02*
G01X8423Y1344D01*
G01X8350Y1650D02*
G01X8423Y1344D01*
G01X8350Y1650D02*
G01X8277Y1344D01*
G01X8204Y1650D02*
G01X8277Y1344D01*
G01X8108Y1650D02*
G01X8108Y1344D01*
G01X8108Y1650D02*
G01X7992Y1344D01*
G01X7876Y1650D02*
G01X7992Y1344D01*
G01X7876Y1650D02*
G01X7876Y1344D01*
G01X7765Y1577D02*
G01X7765Y1591D01*
G01X7751Y1620D01*
G01X7736Y1635D01*
G01X7707Y1650D01*
G01X7649Y1650D01*
G01X7620Y1635D01*
G01X7605Y1620D01*
G01X7591Y1591D01*
G01X7591Y1562D01*
G01X7605Y1533D01*
G01X7634Y1490D01*
G01X7780Y1344D01*
G01X7576Y1344D01*
G01X7256Y1650D02*
G01X7256Y1344D01*
G01X7256Y1650D02*
G01X7125Y1650D01*
G01X7081Y1635D01*
G01X7067Y1620D01*
G01X7052Y1591D01*
G01X7052Y1548D01*
G01X7067Y1519D01*
G01X7081Y1504D01*
G01X7125Y1490D01*
G01X7256Y1490D01*
G01X6956Y1650D02*
G01X6884Y1344D01*
G01X6811Y1650D02*
G01X6884Y1344D01*
G01X6811Y1650D02*
G01X6738Y1344D01*
G01X6665Y1650D02*
G01X6738Y1344D01*
G01X6569Y1650D02*
G01X6569Y1344D01*
G01X6569Y1650D02*
G01X6453Y1344D01*
G01X6337Y1650D02*
G01X6453Y1344D01*
G01X6337Y1650D02*
G01X6337Y1344D01*
G01X6241Y1591D02*
G01X6212Y1606D01*
G01X6168Y1650D01*
G01X6168Y1344D01*
G01X5630Y1577D02*
G01X5644Y1606D01*
G01X5673Y1635D01*
G01X5703Y1650D01*
G01X5761Y1650D01*
G01X5790Y1635D01*
G01X5819Y1606D01*
G01X5833Y1577D01*
G01X5848Y1533D01*
G01X5848Y1460D01*
G01X5833Y1417D01*
G01X5819Y1388D01*
G01X5790Y1359D01*
G01X5761Y1344D01*
G01X5703Y1344D01*
G01X5673Y1359D01*
G01X5644Y1388D01*
G01X5630Y1417D01*
G01X5630Y1460D01*
G01X5703Y1460D02*
G01X5630Y1460D01*
G01X5534Y1650D02*
G01X5534Y1344D01*
G01X5534Y1650D02*
G01X5330Y1344D01*
G01X5330Y1650D02*
G01X5330Y1344D01*
G01X5234Y1650D02*
G01X5234Y1344D01*
G01X5234Y1650D02*
G01X5132Y1650D01*
G01X5089Y1635D01*
G01X5060Y1606D01*
G01X5045Y1577D01*
G01X5031Y1533D01*
G01X5031Y1460D01*
G01X5045Y1417D01*
G01X5060Y1388D01*
G01X5089Y1359D01*
G01X5132Y1344D01*
G01X5234Y1344D01*
G01X4711Y1650D02*
G01X4594Y1344D01*
G01X4478Y1650D02*
G01X4594Y1344D01*
G01X4164Y1577D02*
G01X4178Y1606D01*
G01X4207Y1635D01*
G01X4236Y1650D01*
G01X4295Y1650D01*
G01X4324Y1635D01*
G01X4353Y1606D01*
G01X4367Y1577D01*
G01X4382Y1533D01*
G01X4382Y1460D01*
G01X4367Y1417D01*
G01X4353Y1388D01*
G01X4324Y1359D01*
G01X4295Y1344D01*
G01X4236Y1344D01*
G01X4207Y1359D01*
G01X4178Y1388D01*
G01X4164Y1417D01*
G01X3849Y1577D02*
G01X3864Y1606D01*
G01X3893Y1635D01*
G01X3922Y1650D01*
G01X3980Y1650D01*
G01X4009Y1635D01*
G01X4039Y1606D01*
G01X4053Y1577D01*
G01X4068Y1533D01*
G01X4068Y1460D01*
G01X4053Y1417D01*
G01X4039Y1388D01*
G01X4009Y1359D01*
G01X3980Y1344D01*
G01X3922Y1344D01*
G01X3893Y1359D01*
G01X3864Y1388D01*
G01X3849Y1417D01*
G54D29*
G01X3381Y3327D02*
G01X3381Y2849D01*
G01X3063Y3327D02*
G01X3063Y2849D01*
G01X3381Y3099D02*
G01X3063Y3099D01*
G01X2563Y3327D02*
G01X2563Y2849D01*
G01X2563Y3327D02*
G01X2358Y3327D01*
G01X2290Y3304D01*
G01X2267Y3281D01*
G01X2245Y3236D01*
G01X2245Y3190D01*
G01X2267Y3145D01*
G01X2290Y3122D01*
G01X2358Y3099D01*
G01X2563Y3099D02*
G01X2358Y3099D01*
G01X2290Y3077D01*
G01X2267Y3054D01*
G01X2245Y3009D01*
G01X2245Y2940D01*
G01X2267Y2895D01*
G01X2290Y2872D01*
G01X2358Y2849D01*
G01X2563Y2849D01*
G01X2095Y3168D02*
G01X2095Y2849D01*
G01X2095Y3031D02*
G01X2072Y3099D01*
G01X2026Y3145D01*
G01X1981Y3168D01*
G01X1913Y3168D01*
G01X1763Y3327D02*
G01X1740Y3304D01*
G01X1717Y3327D01*
G01X1740Y3349D01*
G01X1763Y3327D01*
G01X1740Y3168D02*
G01X1740Y2849D01*
G01X1295Y3327D02*
G01X1295Y2849D01*
G01X1295Y3099D02*
G01X1340Y3145D01*
G01X1386Y3168D01*
G01X1454Y3168D01*
G01X1499Y3145D01*
G01X1545Y3099D01*
G01X1567Y3031D01*
G01X1567Y2986D01*
G01X1545Y2918D01*
G01X1499Y2872D01*
G01X1454Y2849D01*
G01X1386Y2849D01*
G01X1340Y2872D01*
G01X1295Y2918D01*
G01X872Y3168D02*
G01X872Y2804D01*
G01X895Y2736D01*
G01X917Y2713D01*
G01X963Y2690D01*
G01X1031Y2690D01*
G01X1076Y2713D01*
G01X872Y3099D02*
G01X917Y3145D01*
G01X963Y3168D01*
G01X1031Y3168D01*
G01X1076Y3145D01*
G01X1122Y3099D01*
G01X1145Y3031D01*
G01X1145Y2986D01*
G01X1122Y2918D01*
G01X1076Y2872D01*
G01X1031Y2849D01*
G01X963Y2849D01*
G01X917Y2872D01*
G01X872Y2918D01*
G01X722Y3031D02*
G01X449Y3031D01*
G01X449Y3077D01*
G01X472Y3122D01*
G01X495Y3145D01*
G01X540Y3168D01*
G01X608Y3168D01*
G01X654Y3145D01*
G01X699Y3099D01*
G01X722Y3031D01*
G01X722Y2986D01*
G01X699Y2918D01*
G01X654Y2872D01*
G01X608Y2849D01*
G01X540Y2849D01*
G01X495Y2872D01*
G01X449Y2918D01*
G54D32*
G01X3021Y2599D02*
G01X3021Y2294D01*
G01X2925Y2498D02*
G01X2838Y2294D01*
G01X2751Y2498D02*
G01X2838Y2294D01*
G01X2480Y2498D02*
G01X2480Y2294D01*
G01X2480Y2454D02*
G01X2509Y2483D01*
G01X2539Y2498D01*
G01X2582Y2498D01*
G01X2611Y2483D01*
G01X2640Y2454D01*
G01X2655Y2410D01*
G01X2655Y2381D01*
G01X2640Y2338D01*
G01X2611Y2309D01*
G01X2582Y2294D01*
G01X2539Y2294D01*
G01X2509Y2309D01*
G01X2480Y2338D01*
G01X2384Y2498D02*
G01X2384Y2294D01*
G01X2384Y2439D02*
G01X2341Y2483D01*
G01X2312Y2498D01*
G01X2268Y2498D01*
G01X2239Y2483D01*
G01X2224Y2439D01*
G01X2224Y2294D01*
G01X1904Y2599D02*
G01X1904Y2294D01*
G01X1904Y2599D02*
G01X1773Y2599D01*
G01X1730Y2585D01*
G01X1715Y2570D01*
G01X1701Y2541D01*
G01X1701Y2512D01*
G01X1715Y2483D01*
G01X1730Y2469D01*
G01X1773Y2454D01*
G01X1904Y2454D02*
G01X1773Y2454D01*
G01X1730Y2439D01*
G01X1715Y2425D01*
G01X1701Y2396D01*
G01X1701Y2352D01*
G01X1715Y2323D01*
G01X1730Y2309D01*
G01X1773Y2294D01*
G01X1904Y2294D01*
G01X1605Y2498D02*
G01X1605Y2294D01*
G01X1605Y2410D02*
G01X1590Y2454D01*
G01X1561Y2483D01*
G01X1532Y2498D01*
G01X1488Y2498D01*
G01X1349Y2599D02*
G01X1349Y2352D01*
G01X1334Y2309D01*
G01X1305Y2294D01*
G01X1276Y2294D01*
G01X1392Y2498D02*
G01X1291Y2498D01*
G01X1005Y2498D02*
G01X1005Y2294D01*
G01X1005Y2454D02*
G01X1035Y2483D01*
G01X1064Y2498D01*
G01X1107Y2498D01*
G01X1136Y2483D01*
G01X1165Y2454D01*
G01X1180Y2410D01*
G01X1180Y2381D01*
G01X1165Y2338D01*
G01X1136Y2309D01*
G01X1107Y2294D01*
G01X1064Y2294D01*
G01X1035Y2309D01*
G01X1005Y2338D01*
G01X909Y2498D02*
G01X909Y2294D01*
G01X909Y2439D02*
G01X866Y2483D01*
G01X837Y2498D01*
G01X793Y2498D01*
G01X764Y2483D01*
G01X749Y2439D01*
G01X749Y2294D01*
G01X3179Y11654D02*
G01X3062Y11349D01*
G01X2946Y11654D02*
G01X3062Y11349D01*
G01X2632Y11582D02*
G01X2646Y11611D01*
G01X2675Y11640D01*
G01X2705Y11654D01*
G01X2763Y11654D01*
G01X2792Y11640D01*
G01X2821Y11611D01*
G01X2835Y11582D01*
G01X2850Y11538D01*
G01X2850Y11465D01*
G01X2835Y11422D01*
G01X2821Y11393D01*
G01X2792Y11364D01*
G01X2763Y11349D01*
G01X2705Y11349D01*
G01X2675Y11364D01*
G01X2646Y11393D01*
G01X2632Y11422D01*
G01X2318Y11582D02*
G01X2332Y11611D01*
G01X2361Y11640D01*
G01X2390Y11654D01*
G01X2449Y11654D01*
G01X2478Y11640D01*
G01X2507Y11611D01*
G01X2521Y11582D01*
G01X2536Y11538D01*
G01X2536Y11465D01*
G01X2521Y11422D01*
G01X2507Y11393D01*
G01X2478Y11364D01*
G01X2449Y11349D01*
G01X2390Y11349D01*
G01X2361Y11364D01*
G01X2332Y11393D01*
G01X2318Y11422D01*
G01X2207Y11524D02*
G01X2222Y11509D01*
G01X2207Y11494D01*
G01X2193Y11509D01*
G01X2207Y11524D01*
G01X2207Y11422D02*
G01X2222Y11407D01*
G01X2207Y11393D01*
G01X2193Y11407D01*
G01X2207Y11422D01*
G01X1800Y11654D02*
G01X1843Y11640D01*
G01X1858Y11611D01*
G01X1858Y11582D01*
G01X1843Y11553D01*
G01X1814Y11538D01*
G01X1756Y11524D01*
G01X1713Y11509D01*
G01X1683Y11480D01*
G01X1669Y11451D01*
G01X1669Y11407D01*
G01X1683Y11378D01*
G01X1698Y11364D01*
G01X1742Y11349D01*
G01X1800Y11349D01*
G01X1843Y11364D01*
G01X1858Y11378D01*
G01X1873Y11407D01*
G01X1873Y11451D01*
G01X1858Y11480D01*
G01X1829Y11509D01*
G01X1785Y11524D01*
G01X1727Y11538D01*
G01X1698Y11553D01*
G01X1683Y11582D01*
G01X1683Y11611D01*
G01X1698Y11640D01*
G01X1742Y11654D01*
G01X1800Y11654D01*
G01X1573Y11480D02*
G01X1311Y11480D01*
G01X1215Y11596D02*
G01X1186Y11611D01*
G01X1142Y11654D01*
G01X1142Y11349D01*
G01X901Y11654D02*
G01X1046Y11451D01*
G01X828Y11451D01*
G01X901Y11654D02*
G01X901Y11349D01*
G01X732Y11654D02*
G01X616Y11349D01*
G01X499Y11654D02*
G01X616Y11349D01*
G01X2782Y11105D02*
G01X2782Y10799D01*
G01X2782Y11105D02*
G01X2665Y10799D01*
G01X2549Y11105D02*
G01X2665Y10799D01*
G01X2549Y11105D02*
G01X2549Y10799D01*
G01X2337Y11105D02*
G01X2453Y10799D01*
G01X2337Y11105D02*
G01X2220Y10799D01*
G01X2409Y10901D02*
G01X2264Y10901D01*
G01X2124Y11105D02*
G01X1921Y10799D01*
G01X1921Y11105D02*
G01X2124Y10799D01*
G01X1601Y11046D02*
G01X1572Y11061D01*
G01X1528Y11105D01*
G01X1528Y10799D01*
G01X1359Y11105D02*
G01X1403Y11090D01*
G01X1417Y11061D01*
G01X1417Y11032D01*
G01X1403Y11003D01*
G01X1374Y10988D01*
G01X1316Y10974D01*
G01X1272Y10959D01*
G01X1243Y10930D01*
G01X1228Y10901D01*
G01X1228Y10857D01*
G01X1243Y10828D01*
G01X1257Y10814D01*
G01X1301Y10799D01*
G01X1359Y10799D01*
G01X1403Y10814D01*
G01X1417Y10828D01*
G01X1432Y10857D01*
G01X1432Y10901D01*
G01X1417Y10930D01*
G01X1388Y10959D01*
G01X1345Y10974D01*
G01X1286Y10988D01*
G01X1257Y11003D01*
G01X1243Y11032D01*
G01X1243Y11061D01*
G01X1257Y11090D01*
G01X1301Y11105D01*
G01X1359Y11105D01*
G01X1132Y11105D02*
G01X1016Y10799D01*
G01X900Y11105D02*
G01X1016Y10799D01*
M00*
M02*
